# xmcd
#
# Track frame offsets:
#	150
#	15475
#	27378
#	43537
#	61300
#	81203
#	96911
#	114453
#	131370
#	145862
#	161778
#	183831
#	204226
#	220501
#	235451
#	252513
#	268464
#	282980
#	299948
#	317609
#
# Disc length: 4469 seconds
#
# Revision: 0
# Processed by: cddbd v1.5.2PL0 Copyright (c) Steve Scherf et al.
# Submitted via: dBpowerAMP V4.0
#
DISCID=2e117314
DTITLE=Eduardo Costa - As melhores 2007
DYEAR=1900
DGENRE=Brega
TTITLE0=É isso ai
TTITLE1=Na Saideira
TTITLE2=Entre ele e eu
TTITLE3=Essa moça
TTITLE4=Rasgando a Madrugada
TTITLE5=Pele, Alma e Coração
TTITLE6=Me Apaixonei
TTITLE7=Feito eu
TTITLE8=Vc so me faz feliz
TTITLE9=Não preciso de você
TTITLE10=Amor de Violeiro
TTITLE11=Coração Aberto
TTITLE12=Eu quero esse amor
TTITLE13=Você decide
TTITLE14=Culpados
TTITLE15=Eu Duvido
TTITLE16=Nos bares da cidade
TTITLE17=Acabou o Amor
TTITLE18=Por Onde Andei
TTITLE19=Tudo de Novo
EXTD=
EXTT0=
EXTT1=
EXTT2=
EXTT3=
EXTT4=
EXTT5=
EXTT6=
EXTT7=
EXTT8=
EXTT9=
EXTT10=
EXTT11=
EXTT12=
EXTT13=
EXTT14=
EXTT15=
EXTT16=
EXTT17=
EXTT18=
EXTT19=
PLAYORDER=
